<?xml version="1.0" encoding="iso-8859-1"?>
<!-- Uploaded to: SVG Repo, www.svgrepo.com, Generator: SVG Repo Mixer Tools -->
<svg height="800px" width="800px" version="1.1" id="Layer_1" xmlns="http://www.w3.org/2000/svg" xmlns:xlink="http://www.w3.org/1999/xlink" 
	 viewBox="0 0 512 512" xml:space="preserve">
<path style="fill:#E07188;" d="M493.268,90.934H18.732C8.387,90.934,0,99.321,0,109.666v292.668
	c0,10.344,8.387,18.732,18.732,18.732h474.537c10.345,0,18.732-8.388,18.732-18.732V109.666
	C512,99.321,503.613,90.934,493.268,90.934z"/>
<path style="fill:#DC4161;" d="M493.268,90.934H256v330.131h237.268c10.345,0,18.732-8.388,18.732-18.732V109.666
	C512,99.321,503.613,90.934,493.268,90.934z"/>
<g>
	<path style="fill:#FFFFFF;" d="M97.022,233.067c5.2,0,5.274,1.59,5.376,3.793c0.004,0.08,0.009,0.162,0.015,0.244
		c0.485,6.665,5.753,11.319,12.815,11.319c6.206,0,12.836-3.564,12.836-13.568c0-13.387-10.662-26.936-31.041-26.936
		c-19.406,0-31.461,12.176-31.461,31.775v32.614c0,19.663,11.937,31.88,31.151,31.88c20.582,0,31.351-13.659,31.351-27.148
		c0-10.085-6.631-13.678-12.836-13.678c-6.822,0-11.952,4.399-12.768,10.946c-0.568,4.554-0.591,4.733-5.014,4.733
		c-4.693,0-6.21-0.522-6.21-6.732v-32.614C91.237,233.334,93.009,233.067,97.022,233.067z"/>
	<path style="fill:#FFFFFF;" d="M178.122,278.41h-20.62v-58.608c0-6.777-5.518-11.886-12.836-11.886s-12.836,5.109-12.836,11.886
		v71.654c0,6.786,5.5,12.102,12.522,12.102h33.771c6.661,0,11.682-5.43,11.682-12.626
		C189.805,283.793,184.783,278.41,178.122,278.41z"/>
	<path style="fill:#FFFFFF;" d="M219.655,207.918c-19.272,0-31.244,12.176-31.244,31.775v32.614c0,19.663,11.972,31.88,31.244,31.88
		c19.279,0,31.253-12.217,31.253-31.88v-32.614C250.91,220.093,238.934,207.918,219.655,207.918z M214.083,239.693
		c0-6.333,1.911-6.627,5.573-6.627c3.666,0,5.581,0.293,5.581,6.627v32.614c0,6.431-1.913,6.732-5.581,6.732
		c-3.663,0-5.573-0.3-5.573-6.732V239.693z"/>
	<path style="fill:#FFFFFF;" d="M289.822,241.076c-8.402-3.088-8.736-3.869-8.736-5.486c0-1.269,0-2.846,5.888-2.846
		c4.054,0,6.038,1.021,7.957,2.009c1.635,0.842,3.871,1.996,6.777,1.996c7.425,0,12.414-6.856,12.414-13.258
		c0-12.462-16.997-15.786-27.041-15.786c-19.24,0-31.673,11.192-31.673,28.512c0,19.625,15.121,25.307,24.156,28.701
		c9.848,3.699,10.776,4.915,10.776,8.965c0,2.766,0,5.156-6.313,5.156c-4.945,0-6.462-1.635-8.382-3.705
		c-1.745-1.881-4.665-5.026-9.608-5.026c-7.38,0-12.524,6.986-12.524,13.256c0,9.805,12.708,20.732,30.941,20.732
		c19.171,0,31.558-12.186,31.558-31.041C316.013,250.7,299.617,244.675,289.822,241.076z"/>
	<path style="fill:#FFFFFF;" d="M370.076,233.067c6.726,0,11.995-5.595,11.995-12.736c0-7.077-5.157-12.412-11.995-12.412H332.62
		c-7.022,0-12.522,5.267-12.522,11.993v71.546c0,6.786,5.5,12.102,12.522,12.102h37.456c6.726,0,11.995-5.501,11.995-12.522
		c0-7.081-5.27-12.626-11.995-12.626h-24.303v-10.41h7.149c6.727,0,11.995-5.364,11.995-12.209c0-7.022-5.269-12.522-11.995-12.522
		h-7.149v-10.203h24.303V233.067z"/>
	<path style="fill:#FFFFFF;" d="M415.081,207.918h-18.619c-7.022,0-12.522,5.22-12.522,11.886v71.762
		c0,6.614,5.617,11.993,12.522,11.993h18.619c19.342,0,31.358-12.217,31.358-31.883v-31.982
		C446.439,220.093,434.423,207.918,415.081,207.918z M409.612,233.067h5.468c3.628,0,5.681,0.307,5.681,6.627v31.983
		c0,6.409-2.158,6.735-5.681,6.735h-5.468V233.067z"/>
</g>
</svg>