<?xml version="1.0" encoding="iso-8859-1"?>
<!-- Uploaded to: SVG Repo, www.svgrepo.com, Generator: SVG Repo Mixer Tools -->
<svg height="800px" width="800px" version="1.1" id="Layer_1" xmlns="http://www.w3.org/2000/svg" xmlns:xlink="http://www.w3.org/1999/xlink" 
	 viewBox="0 0 512 512" xml:space="preserve">
<path style="fill:#A8DA64;" d="M493.268,90.933H18.732C8.387,90.933,0,99.32,0,109.665v292.67c0,10.346,8.387,18.732,18.732,18.732
	h474.537c10.345,0,18.732-8.386,18.732-18.732v-292.67C512,99.32,503.613,90.933,493.268,90.933z"/>
<path style="fill:#78B86D;" d="M493.268,90.933H256v330.134h237.268c10.345,0,18.732-8.386,18.732-18.732v-292.67
	C512,99.32,503.613,90.933,493.268,90.933z"/>
<g>
	<path style="fill:#FFFFFF;" d="M155.827,207.707c-19.33,0-31.339,12.211-31.339,31.869v32.749
		c0,19.721,12.008,31.974,31.339,31.974s31.339-12.253,31.339-31.974v-32.749C187.166,219.917,175.158,207.707,155.827,207.707z
		 M150.192,239.575c0-6.398,1.932-6.695,5.635-6.695c3.6,0,5.637,0.31,5.637,6.695v32.749c0,6.49-1.933,6.792-5.637,6.792
		c-3.703,0-5.634-0.302-5.634-6.792C150.192,272.325,150.192,239.575,150.192,239.575z"/>
	<path style="fill:#FFFFFF;" d="M225.851,207.707H206.41c-0.176,0-0.351,0.005-0.527,0.015c-6.725,0.378-11.795,5.488-11.795,11.883
		v71.943c0,6.792,5.645,12.114,12.849,12.114c7.209,0,12.856-5.322,12.856-12.114v-19.161h5.847
		c19.331,0,31.339-12.209,31.339-31.865v-1.058C256.978,219.875,245.051,207.707,225.851,207.707z M219.793,232.879h5.847
		c3.703,0,5.634,0.297,5.634,6.695v1.261c0,6.482-2.036,6.8-5.634,6.8h-5.847V232.879z"/>
	<path style="fill:#FFFFFF;" d="M310.342,232.879c6.733,0,12.007-5.6,12.007-12.749c0-7.083-5.162-12.424-12.007-12.424h-37.608
		c-7.029,0-12.536,5.272-12.536,12.002v71.839c0,6.792,5.507,12.114,12.536,12.114h37.607c6.733,0,12.007-5.507,12.007-12.537
		c0-7.089-5.275-12.641-12.007-12.641h-24.439v-10.527h7.217c6.733,0,12.007-5.366,12.007-12.217
		c0-7.032-5.275-12.539-12.007-12.539h-7.217v-10.322h24.44V232.879z"/>
	<path style="fill:#FFFFFF;" d="M374.658,207.707c-7.327,0-12.851,5.115-12.851,11.897v19.379l-10.854-21.39
		c-3.427-6.56-8.07-9.885-13.799-9.885c-7.324,0-12.849,5.16-12.849,12.002v71.839c0,6.792,5.644,12.114,12.849,12.114
		c7.209,0,12.856-5.322,12.856-12.114v-19.693l11.63,22.639c4.163,8.276,10.491,9.169,13.019,9.169
		c7.208,0,12.854-5.322,12.854-12.114v-71.944C387.512,212.822,381.987,207.707,374.658,207.707z"/>
</g>
</svg>